<svg width="130" height="28" viewBox="0 0 130 28" fill="none" xmlns="http://www.w3.org/2000/svg">
<path fill-rule="evenodd" clip-rule="evenodd" d="M12.5 0L25 7.08714V21.2614L15.9836 26.3734V11.9783H15.9781L15.9911 11.9564L3.70183 4.98831L12.5 0ZM0 7.5091V21.2614L11.8852 28V14.2481L0 7.5091Z" fill="white"/>
<path d="M44.6251 12.1727C44.3911 12.7298 44.0272 13.1737 43.5332 13.5132C43.0392 13.8527 42.4846 14.0268 41.8693 14.0268C41.0287 14.0268 40.3181 13.7134 39.7375 13.0954C39.1482 12.4773 38.8535 11.7374 38.8535 10.867C38.8535 9.98778 39.1482 9.24788 39.7375 8.62985C40.3181 8.02052 41.0287 7.71586 41.8693 7.71586C42.4846 7.71586 43.0392 7.88125 43.5332 8.22073C44.0272 8.56021 44.3911 9.01286 44.6424 9.56996H47.1989C46.8956 8.39483 46.2543 7.4199 45.2664 6.66259C44.2785 5.90529 43.1432 5.52228 41.8693 5.52228C40.3441 5.52228 39.0528 6.04456 37.9869 7.08042C36.921 8.11628 36.3837 9.37846 36.3837 10.867C36.3837 12.338 36.921 13.6002 37.9869 14.6448C39.0528 15.6981 40.3441 16.2203 41.8693 16.2203C43.1432 16.2203 44.2785 15.8373 45.2751 15.08C46.263 14.3227 46.9043 13.3478 47.1989 12.1727H44.6251Z" fill="white"/>
<path d="M54.7788 9.11731C54.2675 8.55151 53.5309 8.26426 52.5603 8.26426C51.5117 8.26426 50.6104 8.65597 49.8738 9.43068C49.1372 10.2054 48.7646 11.1455 48.7646 12.2336C48.7646 13.3304 49.1372 14.2705 49.8738 15.0452C50.6104 15.8286 51.5117 16.2203 52.5603 16.2203C53.5309 16.2116 54.2675 15.9244 54.7788 15.3586V16.0201H57.1793V8.46446H54.7788V9.11731ZM52.9503 14.0268C52.4563 14.0268 52.0317 13.8527 51.685 13.5132C51.3297 13.1737 51.1564 12.7559 51.1564 12.2423C51.1564 11.7287 51.3297 11.3022 51.685 10.9627C52.0317 10.6232 52.4563 10.4578 52.9503 10.4578C53.4702 10.4578 53.9035 10.6232 54.2589 10.9627C54.6055 11.3022 54.7788 11.7287 54.7788 12.2423C54.7788 12.7559 54.6055 13.1737 54.2589 13.5132C53.9035 13.8527 53.4702 14.0268 52.9503 14.0268Z" fill="white"/>
<path d="M59.1523 14.5926C59.2649 14.8363 59.6202 15.2193 60.0709 15.5762C60.5215 15.9331 61.3274 16.2203 62.1854 16.2203C63.234 16.2203 64.0659 15.9679 64.6725 15.4543C65.2705 14.9495 65.5738 14.4098 65.5738 13.8265C65.5738 13.2085 65.3745 12.7123 64.9845 12.338C64.5859 11.9637 64.1526 11.7287 63.6759 11.6156C63.1993 11.5111 62.766 11.3805 62.376 11.2326C61.9774 11.0846 61.7781 10.9018 61.7781 10.6755C61.7781 10.3969 62.0294 10.2576 62.5407 10.2576C62.9827 10.2576 63.3553 10.4578 63.6759 10.867L65.3918 9.96167L65.2878 9.77887C65.1492 9.54384 64.8112 9.17825 64.3866 8.85617C63.9619 8.54281 63.234 8.26426 62.506 8.26426C61.5354 8.26426 60.7728 8.50799 60.2182 8.98674C59.6549 9.4655 59.3776 10.0226 59.3776 10.658C59.3776 11.0846 59.4729 11.4502 59.6636 11.7635C60.0449 12.399 60.6168 12.6253 61.2841 12.8516C62.2374 13.165 63.1646 13.2346 63.1733 13.7917C63.182 14.079 62.87 14.2183 62.2374 14.2183L61.9514 14.2008C61.7694 14.1747 61.5614 14.0964 61.3188 13.9658C61.0761 13.8353 60.8941 13.6525 60.7815 13.4174L59.0396 14.4011L59.1523 14.5926Z" fill="white"/>
<path d="M74.7916 16.0201V11.2064C74.7916 11.041 74.8002 10.7538 74.5749 10.1184C74.4623 9.79628 74.3149 9.50903 74.133 9.25659C73.951 9.00415 73.665 8.76913 73.2924 8.56892C72.911 8.36871 72.4691 8.26426 71.9578 8.26426C71.0652 8.26426 70.3892 8.55151 69.9299 9.11731V5.33948H67.5381V16.0201H69.9299V11.9725C69.9299 11.6678 70.0339 11.337 70.2419 10.9801C70.4499 10.6319 70.7879 10.4578 71.2472 10.4578C72.0271 10.4578 72.4171 10.9192 72.4171 11.8332V16.0201H74.7916Z" fill="white"/>
<path d="M77.7698 10.658V16.0201H80.1443V10.658H81.9382V8.46446H80.1443V7.99441L80.1616 7.75068C80.1876 7.58529 80.283 7.4112 80.4563 7.24581C80.6296 7.08042 80.8722 7.00208 81.1756 7.00208L81.9208 7.08912V5.09575L80.4476 5C80.2916 5 80.1443 5.0087 80.0056 5.01741C79.8583 5.02611 79.6417 5.08705 79.347 5.1915C79.0524 5.30466 78.8011 5.45264 78.5931 5.64415C78.1771 6.02715 77.7698 6.8628 77.7698 7.977V8.46446H76.4006V10.658H77.7698Z" fill="white"/>
<path d="M86.3896 16.0201V12.7559C86.3896 12.2771 86.5716 11.7984 86.9356 11.3022C87.2909 10.806 87.8022 10.5623 88.4695 10.5623L89.1974 10.6406V8.42964L88.3395 8.36871C88.1055 8.36871 87.8715 8.41224 87.4295 8.56022C86.9876 8.70819 86.5716 9.10861 86.3896 9.67441V8.46446H84.0151V16.0201H86.3896Z" fill="white"/>
<path d="M98.3719 12.3119C98.3719 11.0672 97.9992 10.0748 97.2626 9.35234C96.526 8.62985 95.6334 8.26426 94.5935 8.26426C93.4582 8.26426 92.4876 8.65597 91.6903 9.43068C90.8931 10.2054 90.4944 11.1455 90.4944 12.2336C90.4944 13.3304 90.8931 14.2705 91.6903 15.0452C92.4876 15.8286 93.4582 16.2203 94.5935 16.2203C95.1568 16.2203 95.7287 16.1246 96.3093 15.9244C96.8813 15.7242 97.2626 15.5675 97.4533 15.4456C97.6439 15.3325 97.7912 15.228 97.8952 15.1497L96.37 13.5393C95.8414 13.8614 95.2348 14.0268 94.5588 14.0268C93.9089 14.0181 93.4235 13.7395 93.1202 13.1824H98.3719V12.3119ZM93.0336 11.5633C93.2676 10.8234 93.7789 10.4578 94.5588 10.4578C95.3474 10.4578 95.85 10.8234 96.0667 11.5633H93.0336Z" fill="white"/>
<path d="M102.676 16.0201V8.46446H100.301V16.0201H102.676ZM100.544 7.43731C100.813 7.70716 101.125 7.83773 101.489 7.83773C101.853 7.83773 102.173 7.70716 102.442 7.43731C102.711 7.16747 102.841 6.8541 102.841 6.4798C102.841 6.1142 102.711 5.80083 102.442 5.53099C102.173 5.26114 101.853 5.13057 101.489 5.13057C101.125 5.13057 100.813 5.26114 100.544 5.53099C100.275 5.80083 100.137 6.1142 100.137 6.4798C100.137 6.8541 100.275 7.16747 100.544 7.43731Z" fill="white"/>
<path d="M108.939 10.4578C109.459 10.4578 109.892 10.6232 110.247 10.9627C110.594 11.3022 110.767 11.7287 110.767 12.2423C110.767 12.7559 110.594 13.1737 110.247 13.5132C109.892 13.8527 109.459 14.0268 108.939 14.0268C108.445 14.0268 108.02 13.8527 107.673 13.5132C107.318 13.1737 107.145 12.7559 107.145 12.2423C107.145 11.7287 107.318 11.3022 107.673 10.9627C108.02 10.6232 108.445 10.4578 108.939 10.4578ZM109.06 19.5716C110.221 19.5716 111.2 19.2235 111.989 18.5358C112.778 17.8481 113.168 16.9602 113.168 15.8809V8.46446H110.767V9.11731C110.256 8.55151 109.519 8.26426 108.549 8.26426C107.5 8.26426 106.599 8.65597 105.862 9.43068C105.126 10.2054 104.753 11.1455 104.753 12.2336C104.753 13.3304 105.126 14.2705 105.862 15.0452C106.599 15.8286 107.5 16.2203 108.549 16.2203C109.519 16.2116 110.256 15.9244 110.767 15.3586V16.1072C110.767 16.4815 110.585 16.7861 110.213 17.0212C109.84 17.2562 109.467 17.3781 109.103 17.3781L108.731 17.3432C108.479 17.3171 108.185 17.2475 107.829 17.143C107.474 17.0386 107.179 16.8993 106.954 16.7165L105.767 18.501L106.174 18.7621C106.434 18.9449 106.841 19.119 107.387 19.3018C107.933 19.4846 108.497 19.5716 109.06 19.5716Z" fill="white"/>
<path d="M122.853 16.0201V11.2064C122.853 11.041 122.862 10.7538 122.637 10.1184C122.524 9.79628 122.377 9.50903 122.195 9.25659C122.013 9.00415 121.727 8.76913 121.354 8.56892C120.973 8.36871 120.531 8.26426 120.02 8.26426C119.127 8.26426 118.451 8.55151 117.992 9.11731V5.33948H115.6V16.0201H117.992V11.9725C117.992 11.6678 118.096 11.337 118.304 10.9801C118.512 10.6319 118.85 10.4578 119.309 10.4578C120.089 10.4578 120.479 10.9192 120.479 11.8332V16.0201H122.853Z" fill="white"/>
<path d="M125.832 10.658V13.0431C125.832 14.1573 126.239 15.0017 126.655 15.376C126.863 15.5675 127.114 15.7155 127.409 15.8199C127.703 15.9331 127.92 15.994 128.067 16.0027C128.206 16.0114 128.353 16.0201 128.509 16.0201C128.96 16.0201 129.454 15.994 129.983 15.9331V13.931C129.679 13.9832 129.428 14.0181 129.237 14.0268C128.83 14.0268 128.535 13.8527 128.423 13.6699C128.223 13.3652 128.206 13.0344 128.206 13.0257V10.658H130V8.46446H128.206V5.33948L125.832 5.86176V8.46446H124.462V10.658H125.832Z" fill="white"/>
<path d="M36 23.7215C36 22.8975 36.1775 22.1646 36.5324 21.5228C36.8874 20.8731 37.3804 20.37 38.0114 20.0134C38.6504 19.649 39.3721 19.4667 40.1767 19.4667C41.1627 19.4667 42.0067 19.7282 42.7088 20.2511C43.4108 20.774 43.8801 21.4871 44.1168 22.3904H41.8923C41.7267 22.0418 41.4901 21.7763 41.1824 21.5941C40.8827 21.4119 40.5396 21.3207 40.153 21.3207C39.5299 21.3207 39.0251 21.5386 38.6385 21.9744C38.252 22.4102 38.0588 22.9925 38.0588 23.7215C38.0588 24.4504 38.252 25.0328 38.6385 25.4685C39.0251 25.9043 39.5299 26.1222 40.153 26.1222C40.5396 26.1222 40.8827 26.0311 41.1824 25.8489C41.4901 25.6666 41.7267 25.4012 41.8923 25.0526H44.1168C43.8801 25.9558 43.4108 26.6689 42.7088 27.1918C42.0067 27.7068 41.1627 27.9643 40.1767 27.9643C39.3721 27.9643 38.6504 27.7861 38.0114 27.4295C37.3804 27.0651 36.8874 26.5619 36.5324 25.9202C36.1775 25.2784 36 24.5455 36 23.7215Z" fill="white"/>
<path d="M47.7488 19.1102V27.9049H45.7256V19.1102H47.7488Z" fill="white"/>
<path d="M49.1825 24.5772C49.1825 23.8958 49.3087 23.2976 49.5612 22.7826C49.8215 22.2676 50.1725 21.8714 50.6142 21.5941C51.0559 21.3168 51.5489 21.1781 52.0932 21.1781C52.5586 21.1781 52.9648 21.2732 53.3119 21.4634C53.6669 21.6535 53.939 21.9031 54.1283 22.2121V21.2732H56.1516V27.9049H54.1283V26.966C53.9311 27.275 53.655 27.5246 53.3001 27.7148C52.953 27.9049 52.5468 28 52.0814 28C51.545 28 51.0559 27.8613 50.6142 27.584C50.1725 27.2988 49.8215 26.8987 49.5612 26.3837C49.3087 25.8607 49.1825 25.2586 49.1825 24.5772ZM54.1283 24.5891C54.1283 24.082 53.9863 23.6819 53.7024 23.3887C53.4263 23.0955 53.0871 22.949 52.6848 22.949C52.2825 22.949 51.9394 23.0955 51.6554 23.3887C51.3794 23.6739 51.2413 24.0701 51.2413 24.5772C51.2413 25.0843 51.3794 25.4883 51.6554 25.7894C51.9394 26.0826 52.2825 26.2292 52.6848 26.2292C53.0871 26.2292 53.4263 26.0826 53.7024 25.7894C53.9863 25.4963 54.1283 25.0961 54.1283 24.5891Z" fill="white"/>
<path d="M60.671 28C60.0952 28 59.5824 27.901 59.1328 27.7029C58.6832 27.5048 58.3282 27.2354 58.0679 26.8947C57.8076 26.5461 57.6617 26.1579 57.6301 25.73H59.6298C59.6534 25.9598 59.7599 26.146 59.9492 26.2886C60.1385 26.4312 60.3712 26.5025 60.6473 26.5025C60.8997 26.5025 61.093 26.455 61.2271 26.3599C61.3691 26.2569 61.4401 26.1262 61.4401 25.9677C61.4401 25.7775 61.3415 25.6389 61.1443 25.5517C60.9471 25.4567 60.6276 25.3537 60.1859 25.2427C59.7126 25.1318 59.3182 25.0169 59.0027 24.8981C58.6871 24.7713 58.415 24.5772 58.1863 24.3157C57.9575 24.0463 57.8431 23.6858 57.8431 23.2342C57.8431 22.8539 57.9457 22.5092 58.1508 22.2002C58.3637 21.8833 58.6714 21.6337 59.0737 21.4515C59.4838 21.2692 59.9689 21.1781 60.529 21.1781C61.3572 21.1781 62.008 21.3841 62.4813 21.7961C62.9624 22.2081 63.2385 22.7548 63.3095 23.4362H61.4401C61.4085 23.2065 61.306 23.0242 61.1324 22.8895C60.9668 22.7548 60.7459 22.6875 60.4698 22.6875C60.2332 22.6875 60.0518 22.735 59.9256 22.8301C59.7994 22.9173 59.7362 23.0401 59.7362 23.1985C59.7362 23.3887 59.8348 23.5313 60.032 23.6264C60.2371 23.7215 60.5527 23.8166 60.9786 23.9116C61.4677 24.0384 61.866 24.1652 62.1736 24.2919C62.4813 24.4108 62.7495 24.6089 62.9782 24.8862C63.2149 25.1556 63.3371 25.52 63.345 25.9796C63.345 26.3678 63.2346 26.7164 63.0137 27.0254C62.8007 27.3265 62.4892 27.5642 62.079 27.7385C61.6767 27.9128 61.2074 28 60.671 28Z" fill="white"/>
<path d="M67.6385 28C67.0626 28 66.5499 27.901 66.1003 27.7029C65.6507 27.5048 65.2957 27.2354 65.0354 26.8947C64.7751 26.5461 64.6292 26.1579 64.5976 25.73H66.5972C66.6209 25.9598 66.7274 26.146 66.9167 26.2886C67.106 26.4312 67.3387 26.5025 67.6148 26.5025C67.8672 26.5025 68.0605 26.455 68.1946 26.3599C68.3366 26.2569 68.4076 26.1262 68.4076 25.9677C68.4076 25.7775 68.309 25.6389 68.1118 25.5517C67.9146 25.4567 67.5951 25.3537 67.1534 25.2427C66.6801 25.1318 66.2857 25.0169 65.9702 24.8981C65.6546 24.7713 65.3825 24.5772 65.1537 24.3157C64.925 24.0463 64.8106 23.6858 64.8106 23.2342C64.8106 22.8539 64.9132 22.5092 65.1182 22.2002C65.3312 21.8833 65.6389 21.6337 66.0411 21.4515C66.4513 21.2692 66.9364 21.1781 67.4965 21.1781C68.3247 21.1781 68.9755 21.3841 69.4488 21.7961C69.9299 22.2081 70.206 22.7548 70.277 23.4362H68.4076C68.376 23.2065 68.2735 23.0242 68.0999 22.8895C67.9343 22.7548 67.7134 22.6875 67.4373 22.6875C67.2007 22.6875 67.0193 22.735 66.8931 22.8301C66.7668 22.9173 66.7037 23.0401 66.7037 23.1985C66.7037 23.3887 66.8023 23.5313 66.9995 23.6264C67.2046 23.7215 67.5201 23.8166 67.9461 23.9116C68.4352 24.0384 68.8335 24.1652 69.1411 24.2919C69.4488 24.4108 69.717 24.6089 69.9457 24.8862C70.1824 25.1556 70.3046 25.52 70.3125 25.9796C70.3125 26.3678 70.2021 26.7164 69.9812 27.0254C69.7682 27.3265 69.4567 27.5642 69.0465 27.7385C68.6442 27.9128 68.1749 28 67.6385 28Z" fill="white"/>
<path d="M72.9376 20.5839C72.5827 20.5839 72.2908 20.4809 72.0621 20.2749C71.8412 20.061 71.7308 19.7995 71.7308 19.4905C71.7308 19.1736 71.8412 18.9121 72.0621 18.7061C72.2908 18.4922 72.5827 18.3852 72.9376 18.3852C73.2847 18.3852 73.5687 18.4922 73.7896 18.7061C74.0183 18.9121 74.1327 19.1736 74.1327 19.4905C74.1327 19.7995 74.0183 20.061 73.7896 20.2749C73.5687 20.4809 73.2847 20.5839 72.9376 20.5839ZM73.9434 21.2732V27.9049H71.9201V21.2732H73.9434Z" fill="white"/>
<path d="M79.0923 22.9608H78.0038V27.9049H75.9805V22.9608H75.2469V21.2732H75.9805V21.083C75.9805 20.267 76.2132 19.649 76.6786 19.229C77.144 18.8012 77.8263 18.5872 78.7255 18.5872C78.8754 18.5872 78.9858 18.5912 79.0568 18.5991V20.3224C78.6703 20.2987 78.3982 20.3541 78.2404 20.4888C78.0827 20.6235 78.0038 20.8652 78.0038 21.2138V21.2732H79.0923V22.9608Z" fill="white"/>
<path d="M81.4304 20.5839C81.0754 20.5839 80.7835 20.4809 80.5548 20.2749C80.3339 20.061 80.2235 19.7995 80.2235 19.4905C80.2235 19.1736 80.3339 18.9121 80.5548 18.7061C80.7835 18.4922 81.0754 18.3852 81.4304 18.3852C81.7774 18.3852 82.0614 18.4922 82.2823 18.7061C82.511 18.9121 82.6254 19.1736 82.6254 19.4905C82.6254 19.7995 82.511 20.061 82.2823 20.2749C82.0614 20.4809 81.7774 20.5839 81.4304 20.5839ZM82.4361 21.2732V27.9049H80.4128V21.2732H82.4361Z" fill="white"/>
<path d="M90.4957 24.4821C90.4957 24.6723 90.4839 24.8703 90.4602 25.0763H85.8812C85.9128 25.4883 86.0429 25.8053 86.2717 26.0271C86.5083 26.2411 86.7962 26.348 87.1354 26.348C87.6403 26.348 87.9913 26.1341 88.1885 25.7062H90.3419C90.2315 26.142 90.0303 26.5342 89.7385 26.8828C89.4545 27.2315 89.0956 27.5048 88.6618 27.7029C88.2279 27.901 87.7428 28 87.2064 28C86.5596 28 85.9838 27.8613 85.4789 27.584C84.9741 27.3067 84.5797 26.9106 84.2957 26.3956C84.0118 25.8805 83.8698 25.2784 83.8698 24.5891C83.8698 23.8997 84.0078 23.2976 84.2839 22.7826C84.5679 22.2676 84.9623 21.8714 85.4671 21.5941C85.972 21.3168 86.5517 21.1781 87.2064 21.1781C87.8454 21.1781 88.4133 21.3128 88.9102 21.5822C89.4072 21.8516 89.7937 22.2359 90.0698 22.735C90.3537 23.2342 90.4957 23.8166 90.4957 24.4821ZM88.4251 23.9473C88.4251 23.5987 88.3068 23.3214 88.0702 23.1153C87.8335 22.9093 87.5377 22.8063 87.1828 22.8063C86.8436 22.8063 86.5557 22.9054 86.319 23.1035C86.0903 23.3015 85.9483 23.5828 85.8931 23.9473H88.4251Z" fill="white"/>
<path d="M91.5306 24.5772C91.5306 23.8958 91.6568 23.2976 91.9092 22.7826C92.1695 22.2676 92.5205 21.8714 92.9622 21.5941C93.404 21.3168 93.897 21.1781 94.4412 21.1781C94.8751 21.1781 95.2695 21.2692 95.6244 21.4515C95.9873 21.6337 96.2713 21.8793 96.4764 22.1883V19.1102H98.4996V27.9049H96.4764V26.9541C96.287 27.2711 96.0149 27.5246 95.6599 27.7148C95.3129 27.9049 94.9066 28 94.4412 28C93.897 28 93.404 27.8613 92.9622 27.584C92.5205 27.2988 92.1695 26.8987 91.9092 26.3837C91.6568 25.8607 91.5306 25.2586 91.5306 24.5772ZM96.4764 24.5891C96.4764 24.082 96.3344 23.6819 96.0504 23.3887C95.7743 23.0955 95.4351 22.949 95.0328 22.949C94.6306 22.949 94.2874 23.0955 94.0035 23.3887C93.7274 23.6739 93.5893 24.0701 93.5893 24.5772C93.5893 25.0843 93.7274 25.4883 94.0035 25.7894C94.2874 26.0826 94.6306 26.2292 95.0328 26.2292C95.4351 26.2292 95.7743 26.0826 96.0504 25.7894C96.3344 25.4963 96.4764 25.0961 96.4764 24.5891Z" fill="white"/>
<path d="M103.019 28C102.443 28 101.93 27.901 101.481 27.7029C101.031 27.5048 100.676 27.2354 100.416 26.8947C100.156 26.5461 100.01 26.1579 99.9782 25.73H101.978C102.001 25.9598 102.108 26.146 102.297 26.2886C102.487 26.4312 102.719 26.5025 102.995 26.5025C103.248 26.5025 103.441 26.455 103.575 26.3599C103.717 26.2569 103.788 26.1262 103.788 25.9677C103.788 25.7775 103.689 25.6389 103.492 25.5517C103.295 25.4567 102.976 25.3537 102.534 25.2427C102.061 25.1318 101.666 25.0169 101.351 24.8981C101.035 24.7713 100.763 24.5772 100.534 24.3157C100.306 24.0463 100.191 23.6858 100.191 23.2342C100.191 22.8539 100.294 22.5092 100.499 22.2002C100.712 21.8833 101.019 21.6337 101.422 21.4515C101.832 21.2692 102.317 21.1781 102.877 21.1781C103.705 21.1781 104.356 21.3841 104.829 21.7961C105.31 22.2081 105.587 22.7548 105.658 23.4362H103.788C103.757 23.2065 103.654 23.0242 103.48 22.8895C103.315 22.7548 103.094 22.6875 102.818 22.6875C102.581 22.6875 102.4 22.735 102.274 22.8301C102.147 22.9173 102.084 23.0401 102.084 23.1985C102.084 23.3887 102.183 23.5313 102.38 23.6264C102.585 23.7215 102.901 23.8166 103.327 23.9116C103.816 24.0384 104.214 24.1652 104.522 24.2919C104.829 24.4108 105.097 24.6089 105.326 24.8862C105.563 25.1556 105.685 25.52 105.693 25.9796C105.693 26.3678 105.583 26.7164 105.362 27.0254C105.149 27.3265 104.837 27.5642 104.427 27.7385C104.025 27.9128 103.555 28 103.019 28Z" fill="white"/>
</svg>
